<svg xmlns="http://www.w3.org/2000/svg" viewBox="0 0 275 275">
    <title>44Logo</title>
    <path
        fillRule="evenodd"
        d="M135.3 2.1c3.1 0 10.1.4 15.4.9 5.4.6 13.6 2 18.3 3.1 4.7 1.2 12.5 3.7 17.5 5.7 4.9 2 12.1 5.4 16 7.5 3.8 2.2 9.7 5.8 13 8 3.3 2.2 11 9 17.1 15.1 6.1 6.1 12.9 13.8 15.1 17.1 2.2 3.3 6.1 9.8 8.6 14.5 2.6 4.7 6 12.3 7.7 17 1.8 4.7 4.1 12.1 5.2 16.5 1.4 5.7 2.1 12.8 2.5 25 .4 12.5.1 19.7-1 27-.9 5.5-3 14.3-4.7 19.5-1.7 5.2-4.9 13.1-7 17.5-2.1 4.4-6.6 12.3-10.1 17.5-3.8 5.7-10.4 13.5-16.3 19.5-5.6 5.5-13.5 12.3-17.6 15.1-4.1 2.8-10.9 6.9-15 9.2-4.1 2.2-11.8 5.6-17 7.5-5.2 2-13.6 4.3-18.5 5.2-5 .9-10.9 2.1-13.3 2.6-2.3.5-9 .9-15 .9-5.9 0-12.3-.4-14.2-.9-1.9-.5-6.7-1.5-10.5-2.1-3.9-.6-11.5-2.6-17-4.4-5.5-1.9-13.4-5-17.5-7.1-4.1-2.1-11.1-6.1-15.5-8.9-4.4-2.9-12.4-9.5-17.9-14.7-5.4-5.2-12-12.3-14.7-15.9-2.7-3.6-7.3-10.8-10.2-16-3-5.2-6.6-12.5-8-16.3-1.5-3.7-3.8-10.9-5.1-15.9-1.3-5.1-3-14.7-3.6-21.3-1-9.2-1-14.9-.1-24.3.6-6.7 1.8-15 2.6-18.4.8-3.5 2.8-10.3 4.5-15.3 1.8-5 5.2-12.8 7.7-17.5 2.5-4.7 7.1-12.1 10.2-16.5C30 54.1 36.3 46.7 41 42c4.7-4.7 12.1-11 16.5-14.1 4.4-3.1 11.4-7.5 15.5-9.7 4.1-2.3 11.1-5.5 15.5-7.1 4.4-1.6 11.6-3.8 16-5 4.4-1.1 11.8-2.4 16.5-2.9 4.7-.5 11.1-1 14.2-1.1zm-27.2 26.2c-5.2 1.4-13.3 4.2-18 6.4C85.4 36.9 78 41 73.6 44c-4.4 2.9-11.9 9.2-16.6 13.9-4.7 4.7-11 12.2-13.9 16.6-3 4.4-7.1 11.8-9.3 16.5-2.2 4.7-5 12.8-6.3 18-1.4 5.2-2.8 14-3.3 19.5-.6 6.2-.6 13.6 0 19.5.5 5.2 2.1 13.8 3.5 19 1.4 5.2 4.4 13.6 6.7 18.5 2.4 4.9 6.7 12.6 9.7 17 3 4.4 8.9 11.3 13 15.5 4.2 4.1 11.1 10 15.5 13s12 7.3 17 9.7c4.9 2.3 11.7 4.9 15 5.8 3.3.9 9.6 2.3 14 3 4.4.8 12.5 1.5 18 1.5s13.8-.6 18.5-1.4c4.7-.9 11.6-2.5 15.5-3.7 3.8-1.2 10.4-3.7 14.5-5.7 4.1-1.9 11.3-6.1 16-9.3 4.7-3.2 12.1-9.5 16.6-14.1 4.4-4.6 10.3-11.7 13.1-15.8 2.8-4.1 6.7-11 8.7-15.3 2-4.2 4.7-11.4 6-16 1.3-4.5 3-12 3.6-16.7.8-5.1 1.1-13.1.7-20-.2-6.3-1.4-15.5-2.6-20.5-1.1-5-3.2-11.9-4.7-15.5-1.4-3.6-3.8-8.8-5.1-11.5-1.4-2.8-5.1-8.6-8.2-13-3.1-4.4-8.8-11.1-12.6-15-3.9-3.8-10.7-9.5-15-12.5-4.4-3-12.1-7.3-17-9.7-5-2.3-13.3-5.3-18.5-6.7-5.2-1.4-12.9-2.8-17-3.1-4.1-.3-8.9-.7-10.5-.9-1.7-.2-7.1 0-12 .5-5 .4-13.3 1.9-18.5 3.2zm1.2 35.7c13.1 0 16.4.3 19.4 1.7 2.1 1 4.5 3 7.4 7.3l4-4c2.4-2.4 5.3-4.2 7.2-4.6 1.8-.3 10.3-.4 18.8-.2 13.6.3 16.1.6 20.2 2.5 3.7 1.8 5.3 3.3 6.8 6.5 1.9 4.2 2 6.6 2 137.8h-117v-65.8c0-49.3.3-66.7 1.3-69.5.6-2.1 2.3-5 3.7-6.3 1.4-1.3 4.3-3.1 6.5-3.9 2.8-1 8.6-1.4 19.7-1.5zm-2.4 45.2.2 13.8 14.5-.5c.4-23.1.1-27.4-.8-28.3-.7-.7-3.4-1.3-6.3-1.2-2.7 0-5.6.5-6.4 1.2-1.1.9-1.4 4.2-1.2 15zm44.1-.8c.1 6.4.3 12.3.6 13.1.4 1.1 2.2 1.5 7.5 1.5h7c0-26.5-.3-29.1-1.5-29.5-.8-.3-3.7-.5-6.5-.5-3.8 0-5.2.4-6.1 1.9-.6 1.2-1 6.7-1 13.5zm-42.7 50.2c-.8 1.9-1.2 6.4-1 12.9l.3 10h58l.6-22-6.1-6.5c-41.2 0-47 .3-48.5 1.3-1.1.8-2.6 2.7-3.3 4.3z"
        fill="#000"
    />
</svg>